{"title":"Yamla Pagla Deewana 2 2013 BRRip 480p x264 Hindi ESubs - ViZNU","uid":8801869,"size":583961235,"categoryP":"video","categoryS":"movies","magnet":"?xt=urn:btih:53763da7f7a8b7428d786eac5af23c6c43af043c&amp;dn=Yamla+Pagla+Deewana+2+2013+BRRip+480p+x264+Hindi+ESubs+-+ViZNU&amp;tr=udp%3A%2F%2Ftracker.openbittorrent.com%3A80&amp;tr=udp%3A%2F%2Fopen.demonii.com%3A1337&amp;tr=udp%3A%2F%2Ftracker.coppersurfer.tk%3A6969&amp;tr=udp%3A%2F%2Fexodus.desync.com%3A6969","seeders":1,"leechers":1,"uploader":"ValidusVyto","files":-1,"time":1376182720,"description":"_______ Visit us at our Semi Public Bittorrent Community ________\n  &lt;a href=&quot;\nhttp://p2pdl.com&quot; rel=&quot;nofollow&quot; target=&quot;_NEW&quot;&gt;\nhttp://p2pdl.com&lt;/a&gt;  _____________________________ &lt;a href=&quot; http://p2pdl.com&quot; rel=&quot;nofollow&quot; target=&quot;_NEW&quot;&gt; http://p2pdl.com&lt;/a&gt;\n\n\n\nYamla Pagla Deewana 2 2013 BRRip 480p x264 Hindi - ViZNU\n\n\nGenre: ction | Comedy | Drama \nPlot: The trio of Dharam, Paramveer and Gajodhar reunite, this time in the UK. Paramveer\nopens up the &quot;Yamla Pagla Deewana&quot; club and re-encounters a visit ... \nDirector: Sangeeth Sivan\nStars: Dharmendra, Sunny Deol, Bobby Deol.\nRated: N/a\n\n\nIMDb: &lt;a href=&quot;\nhttp://www.imdb.com/title/tt2510874/&quot; rel=&quot;nofollow&quot; target=&quot;_NEW&quot;&gt;\nhttp://www.imdb.com/title/tt2510874/&lt;/a&gt;\n\nTrailer:\n\n\nFormat                         : MPEG-4\nFile size                      : 552 MiB\nDuration                       : 2h 34mn\nOverall bit rate               : 501 Kbps\n\nVideo\nFormat                         : AVC\nDuration                       : 2h 34mn\nBit rate                       : 458 Kbps\nWidth                          : 720 pixels\nHeight                         : 304 pixels\nDisplay aspect ratio           : 2.35:1\nFrame rate mode                : Constant\nFrame rate                     : 24.000 fps\nBit depth                      : 10 bits\nStream size                    : 505 MiB (91%)\nWriting library                : x264 core 133 r2334\n\nAudio\nFormat                         : AAC\nBit rate mode                  : Variable\nBit rate                       : 39.9 Kbps\nChannel(s)                     : 2 channels\nChannel positions              : Front: L R\nSampling rate                  : 48.0 KHz\nStream size                    : 44.0 MiB (8%)\nLanguage                       : Hindi\nSubtitle\t\t       : Yes(Englis)\n\nSource                         : Read NFO\n &lt;a href=&quot;\nhttp://ultraimg.com/images/YENwu.png&quot; rel=&quot;nofollow&quot; target=&quot;_NEW&quot;&gt;\nhttp://ultraimg.com/images/YENwu.png&lt;/a&gt; &lt;a href=&quot;\nhttp://ultraimg.com/images/f0Yxh.png&quot; rel=&quot;nofollow&quot; target=&quot;_NEW&quot;&gt;\nhttp://ultraimg.com/images/f0Yxh.png&lt;/a&gt; &lt;a href=&quot;\nhttp://ultraimg.com/images/N1Vm.png&quot; rel=&quot;nofollow&quot; target=&quot;_NEW&quot;&gt;\nhttp://ultraimg.com/images/N1Vm.png&lt;/a&gt; &lt;a href=&quot;\nhttp://ultraimg.com/images/PsOAk.png&quot; rel=&quot;nofollow&quot; target=&quot;_NEW&quot;&gt;\nhttp://ultraimg.com/images/PsOAk.png&lt;/a&gt; &lt;a href=&quot;\nhttp://ultraimg.com/images/z5WTY.png&quot; rel=&quot;nofollow&quot; target=&quot;_NEW&quot;&gt;\nhttp://ultraimg.com/images/z5WTY.png&lt;/a&gt; &lt;a href=&quot;\nhttp://ultraimg.com/images/DKvcz.png&quot; rel=&quot;nofollow&quot; target=&quot;_NEW&quot;&gt;\nhttp://ultraimg.com/images/DKvcz.png&lt;/a&gt; &lt;a href=&quot;\nhttp://ultraimg.com/images/CiUIb.png&quot; rel=&quot;nofollow&quot; target=&quot;_NEW&quot;&gt;\nhttp://ultraimg.com/images/CiUIb.png&lt;/a&gt; &lt;a href=&quot;\nhttp://ultraimg.com/images/5FPcY.png&quot; rel=&quot;nofollow&quot; target=&quot;_NEW&quot;&gt;\nhttp://ultraimg.com/images/5FPcY.png&lt;/a&gt;\n\n----------------------------------------------------------------------------------------------------\n\n\nEncoded using revolutionary 10bit encoding, which enables us to provide you more crispier \nand sharper images at small sizes, just make sure you follow our instructions without a fault.\nRecommend to you to use latest version of VLC player. Install K-Lite Codec Pack or shark007 codecs\nin case of any kind of problem in playback (For non-VLC Media Player users). Alternatively, install\nCore AVC codecs, the fastest decoder that there is coupled with Community Center Codec Pack and play\non Windows Media Player Classic. Check sample to be sure.\nEnjoy!\n\nEncoder Notes:Looking For Early Access To Anything You Can Provide DVDScr, R5, DVDR, BluRay, Direct\nAudio, Music Releases and Seedboxes. We require dedicated servers, so as to do more \nand fast releases of movies.\nIf You Got anything to offer please contact us at &quot;&lt;a class=&quot;__cf_email__&quot; href=&quot;/cdn-cgi/l/email-protection&quot; data-cfemail=&quot;eb9b998cab839e9883c5888486&quot;&gt;[email&amp;#160;protected]&lt;/a&gt;&lt;script cf-hash='f9e31' type=&quot;text/javascript&quot;&gt;\n/* &lt;![CDATA[ */!function(){try{var t=&quot;currentScript&quot;in document?document.currentScript:function(){for(var t=document.getElementsByTagName(&quot;script&quot;),e=t.length;e--;)if(t[e].getAttribute(&quot;cf-hash&quot;))return t[e]}();if(t&amp;&amp;t.previousSibling){var e,r,n,i,c=t.previousSibling,a=c.getAttribute(&quot;data-cfemail&quot;);if(a){for(e=&quot;&quot;,r=parseInt(a.substr(0,2),16),n=2;a.length-n;n+=2)i=parseInt(a.substr(n,2),16)^r,e+=String.fromCharCode(i);e=document.createTextNode(e),c.parentNode.replaceChild(e,c)}}}catch(u){}}();/* ]]&gt; */&lt;/script&gt;&quot;.\n\nSearch P2PDL on FB, and hit like!!!","torrent":{"xt":"urn:btih:53763da7f7a8b7428d786eac5af23c6c43af043c","amp;dn":"Yamla+Pagla+Deewana+2+2013+BRRip+480p+x264+Hindi+ESubs+-+ViZNU","amp;tr":["udp%3A%2F%2Ftracker.openbittorrent.com%3A80","udp%3A%2F%2Fopen.demonii.com%3A1337","udp%3A%2F%2Ftracker.coppersurfer.tk%3A6969","udp%3A%2F%2Fexodus.desync.com%3A6969"],"infoHash":"53763da7f7a8b7428d786eac5af23c6c43af043c","infoHashBuffer":{"type":"Buffer","data":[83,118,61,167,247,168,183,66,141,120,110,172,90,242,60,108,67,175,4,60]},"announce":[],"urlList":[]}}